:FULLY-SPECIFIED
:FORCE-ALL-JOINTS-BE-3DOF
:DEGREES
2039
root -2.21936 15.0142 21.5034 910.663 21.2606 183.895
lfemur -32.3121 18.5271 -9.60634
ltibia 72.9333 0 0
lfoot -8.91279 19.9415 0
ltoes -12.8361 0 0
rfemur -29.8891 -11.8693 20.6456
rtibia 60.6966 0 0
rfoot -21.5485 -22.6309 0
rtoes -14.3857 0 0
lowerback 11.5854 0.508388 1.96525
upperback -0.762053 1.38152 3.35135
thorax -7.37753 0.730818 2.22969
lowerneck -2.48069 3.30029 -0.827529
upperneck 1.08337 4.47 -1.70472
head 1.68762 2.20919 -0.199375
lclavicle 1.63408e-14 1.21386e-14 0
lhumerus -22.3469 -4.91115 80.4551
lradius 56.2852 0 0
lwrist -14.0994 0 0
lhand -21.9604 63.7594 0
lfingers 7.12502 0 0
lthumb 4.43962 -727.12 0
rclavicle 1.63408e-14 1.21386e-14 0
rhumerus -21.275 13.9841 -76.3073
rradius 76.2181 0 0
rwrist -47.2126 0 0
rhand -2.79151 -404.382 0
rfingers 7.12502 0 0
rthumb 22.9105 287 0
2040
root -2.23109 15.0214 21.2943 910.54 20.6211 183.796
lfemur -31.8202 18.1283 -9.73417
ltibia 73.0577 0 0
lfoot -8.71717 19.5582 0
ltoes -13.4584 0 0
rfemur -30.2492 -11.5365 20.7037
rtibia 60.7841 0 0
rfoot -21.4899 -22.3153 0
rtoes -14.0412 0 0
lowerback 11.559 0.565315 1.8926
upperback -0.764843 1.43818 3.28749
thorax -7.36666 0.758382 2.19333
lowerneck -2.46102 3.05525 -0.993806
upperneck 1.08808 4.14131 -1.48839
head 1.6847 2.04592 -0.109862
lclavicle 1.54703e-14 1.16049e-14 0
lhumerus -23.3857 -5.29686 81.0924
lradius 57.3136 0 0
lwrist -13.0208 0 0
lhand -21.6263 63.923 0
lfingers 7.12502 0 0
lthumb 4.76202 -729.788 0
rclavicle 1.54703e-14 1.16049e-14 0
rhumerus -19.6471 13.8841 -75.7719
rradius 75.2636 0 0
rwrist -46.2834 0 0
rhand -2.89143 -404.336 0
rfingers 7.12502 0 0
rthumb 22.8145 287.034 0
2041
root -2.24285 15.0286 21.0844 910.417 19.9797 183.696
lfemur -31.3268 17.7282 -9.8624
ltibia 73.183 0 0
lfoot -8.52114 19.1735 0
ltoes -14.0829 0 0
rfemur -30.6106 -11.2025 20.7622
rtibia 60.8719 0 0
rfoot -21.4312 -21.9985 0
rtoes -13.6957 0 0
lowerback 11.5326 0.62248 1.81978
upperback -0.76763 1.4951 3.2234
thorax -7.35579 0.786073 2.15677
lowerneck -2.44124 2.80938 -1.16062
upperneck 1.09277 3.8115 -1.27132
head 1.68177 1.8821 -0.0200533
lclavicle 1.45918e-14 1.10654e-14 0
lhumerus -24.4282 -5.68431 81.732
lradius 58.3459 0 0
lwrist -11.9385 0 0
lhand -21.2916 64.086 0
lfingers 7.12502 0 0
lthumb 5.08496 -732.444 0
rclavicle 1.45918e-14 1.10654e-14 0
rhumerus -18.0134 13.7839 -75.2346
rradius 74.3059 0 0
rwrist -45.3508 0 0
rhand -2.99163 -404.29 0
rfingers 7.12502 0 0
rthumb 22.7184 287.069 0
2042
root -2.25463 15.0359 20.8739 910.293 19.3366 183.596
lfemur -30.8322 17.3271 -9.99096
ltibia 73.3093 0 0
lfoot -8.32483 18.7878 0
ltoes -14.7092 0 0
rfemur -30.9731 -10.8673 20.8209
rtibia 60.96 0 0
rfoot -21.3725 -21.6808 0
rtoes -13.3494 0 0
lowerback 11.5062 0.679849 1.74682
upperback -0.770413 1.55225 3.15913
thorax -7.34493 0.813872 2.12005
lowerneck -2.42139 2.56281 -1.32788
upperneck 1.09744 3.48076 -1.05366
head 1.67882 1.71781 0.0699973
lclavicle 1.37061e-14 1.05206e-14 0
lhumerus -25.4738 -6.07327 82.3735
lradius 59.3815 0 0
lwrist -10.853 0 0
lhand -20.9567 64.2485 0
lfingers 7.12502 0 0
lthumb 5.40821 -735.086 0
rclavicle 1.37061e-14 1.05206e-14 0
rhumerus -16.3748 13.6836 -74.6959
rradius 73.3454 0 0
rwrist -44.4154 0 0
rhand -3.09203 -404.244 0
rfingers 7.12502 0 0
rthumb 22.622 287.103 0
2043
root -2.26643 15.0431 20.6629 910.169 18.6922 183.496
lfemur -30.3368 16.9252 -10.1198
ltibia 73.4365 0 0
lfoot -8.12834 18.4012 0
ltoes -15.337 0 0
rfemur -31.3364 -10.5313 20.8799
rtibia 61.0485 0 0
rfoot -21.3137 -21.3623 0
rtoes -13.0024 0 0
lowerback 11.4798 0.737387 1.67377
upperback -0.77319 1.60959 3.0947
thorax -7.33407 0.841764 2.08319
lowerneck -2.40146 2.3157 -1.49549
upperneck 1.10209 3.14928 -0.835521
head 1.67585 1.55316 0.160237
lclavicle 1.28138e-14 9.97114e-15 0
lhumerus -26.522 -6.46349 83.0166
lradius 60.4198 0 0
lwrist -9.7651 0 0
lhand -20.6216 64.4101 0
lfingers 7.12502 0 0
lthumb 5.73152 -737.713 0
rclavicle 1.28138e-14 9.97114e-15 0
rhumerus -14.7323 13.5833 -74.1559
rradius 72.3826 0 0
rwrist -43.4778 0 0
rhand -3.19259 -404.197 0
rfingers 7.12502 0 0
rthumb 22.5255 287.138 0
2044
root -2.27824 15.0504 20.4515 910.045 18.047 183.396
lfemur -29.8408 16.5228 -10.2488
ltibia 73.5644 0 0
lfoot -7.93177 18.0139 0
ltoes -15.9658 0 0
rfemur -31.7004 -10.1945 20.9392
rtibia 61.1371 0 0
rfoot -21.255 -21.0433 0
rtoes -12.655 0 0
lowerback 11.4535 0.79506 1.60067
upperback -0.775959 1.6671 3.03016
thorax -7.32323 0.869731 2.04621
lowerneck -2.38148 2.06819 -1.66333
upperneck 1.10671 2.81726 -0.617045
head 1.67287 1.38825 0.250612
lclavicle 1.19156e-14 9.41739e-15 0
lhumerus -27.572 -6.85473 83.6608
lradius 61.4602 0 0
lwrist -8.6754 0 0
lhand -20.2868 64.5707 0
lfingers 7.12502 0 0
lthumb 6.05467 -740.322 0
rclavicle 1.19156e-14 9.41739e-15 0
rhumerus -13.0868 13.483 -73.6151
rradius 71.4183 0 0
rwrist -42.5386 0 0
rhand -3.29323 -404.151 0
rfingers 7.12502 0 0
rthumb 22.4288 287.173 0
2045
root -2.29006 15.0577 20.2399 909.92 17.4013 183.295
lfemur -29.3446 16.12 -10.3779
ltibia 73.693 0 0
lfoot -7.73524 17.6263 0
ltoes -16.5952 0 0
rfemur -32.0648 -9.85714 20.9987
rtibia 61.2258 0 0
rfoot -21.1962 -20.7238 0
rtoes -12.3073 0 0
lowerback 11.4272 0.852834 1.52755
upperback -0.77872 1.72474 2.96556
thorax -7.31241 0.897756 2.00915
lowerneck -2.36146 1.82043 -1.83132
upperneck 1.11132 2.4849 -0.398357
head 1.66988 1.22316 0.341069
lclavicle 1.1012e-14 8.85992e-15 0
lhumerus -28.6233 -7.24675 84.3059
lradius 62.5021 0 0
lwrist -7.58454 0 0
lhand -19.9523 64.7301 0
lfingers 7.12502 0 0
lthumb 6.37741 -742.913 0
rclavicle 1.1012e-14 8.85992e-15 0
rhumerus -11.4393 13.3827 -73.0737
rradius 70.453 0 0
rwrist -41.5983 0 0
rhand -3.39391 -404.104 0
rfingers 7.12502 0 0
rthumb 22.3322 287.208 0
2046
root -2.30187 15.065 20.0281 909.796 16.7555 183.195
lfemur -28.8484 15.7172 -10.507
ltibia 73.8222 0 0
lfoot -7.53885 17.2385 0
ltoes -17.2249 0 0
rfemur -32.4294 -9.51949 21.0583
rtibia 61.3147 0 0
rfoot -21.1376 -20.4042 0
rtoes -11.9597 0 0
lowerback 11.401 0.910673 1.45446
upperback -0.781471 1.78246 2.90092
thorax -7.30162 0.925822 1.97202
lowerneck -2.3414 1.57256 -1.99936
upperneck 1.1159 2.1524 -0.179584
head 1.66688 1.05801 0.431556
lclavicle 1.01038e-14 8.29924e-15 0
lhumerus -29.6752 -7.63931 84.9514
lradius 63.5447 0 0
lwrist -6.49318 0 0
lhand -19.6185 64.888 0
lfingers 7.12502 0 0
lthumb 6.69951 -745.485 0
rclavicle 1.01038e-14 8.29924e-15 0
rhumerus -9.79088 13.2826 -72.532
rradius 69.4872 0 0
rwrist -40.6574 0 0
rhand -3.49455 -404.057 0
rfingers 7.12502 0 0
rthumb 22.2356 287.244 0
2047
root -2.31368 15.0723 19.8163 909.672 16.11 183.095
lfemur -28.3526 15.3145 -10.6361
ltibia 73.9521 0 0
lfoot -7.3427 16.8508 0
ltoes -17.8544 0 0
rfemur -32.7939 -9.18171 21.1181
rtibia 61.4036 0 0
rfoot -21.0791 -20.0845 0
rtoes -11.6121 0 0
lowerback 11.3748 0.968544 1.38144
upperback -0.784211 1.84025 2.8363
thorax -7.29087 0.953913 1.93485
lowerneck -2.32133 1.32473 -2.16734
upperneck 1.12046 1.81995 0.0391429
head 1.66388 0.892883 0.522019
lclavicle 9.19158e-15 7.73586e-15 0
lhumerus -30.7271 -8.03218 85.597
lradius 64.5876 0 0
lwrist -5.40196 0 0
lhand -19.2857 65.0444 0
lfingers 7.12502 0 0
lthumb 7.02073 -748.034 0
rclavicle 9.19158e-15 7.73586e-15 0
rhumerus -8.14242 13.1826 -71.9904
rradius 68.5215 0 0
rwrist -39.7166 0 0
rhand -3.59511 -404.011 0
rfingers 7.12502 0 0
rthumb 22.1391 287.279 0
